<svg xmlns="http://www.w3.org/2000/svg" xmlns:xlink="http://www.w3.org/1999/xlink" width="256" height="256"><defs><filter color-interpolation-filters="sRGB"><feFlood flood-opacity=".4" flood-color="#000" result="flood"/><feComposite in2="SourceGraphic" in="flood" operator="in" result="composite1"/><feGaussianBlur stdDeviation="8" result="blur"/><feOffset result="offset"/><feComposite in2="offset" in="SourceGraphic" result="composite2"/></filter><clipPath><rect width="103.571" height="82.5" x="288.663" y="658.904" transform="rotate(-38.33)" fill="#2e5dee" stroke="#fff" stroke-width=".1"/></clipPath><clipPath><path d="M798.273 308.496l-40.911 33.082-19.445.758-14.395-11.617-29.799-36.618 66.923-39.901 44.952 43.437z" fill="#2a2aae"/></clipPath><clipPath><path d="M761.276 338.169l-3.536 5.808 4.672 9.849 10.102 5.682s19.718 16.57 25.822 31.22c6.715 10.378 30.746-31.725 30.746-31.725s-20.523-45.985-34.815-53.805c-29.089 16.566-14.101 14.547-32.991 32.971z" fill="#2a2aae"/></clipPath><radialGradient xlink:href="#a" gradientUnits="userSpaceOnUse" gradientTransform="matrix(-1.925 .702 -.665 -1.823 2576.635 274.248)" cx="812.751" cy="303.604" fx="812.751" fy="303.604" r="66.67"/><linearGradient id="a"><stop offset="0" stop-color="#fff" stop-opacity=".82"/><stop offset="1" stop-color="#fff" stop-opacity="0"/></linearGradient><clipPath><rect width="103.571" height="82.5" x="288.663" y="658.904" transform="rotate(-38.33)" fill="#2e5dee" stroke="#fff" stroke-width=".1"/></clipPath><clipPath><path d="M798.273 308.496l-40.911 33.082-19.445.758-14.395-11.617-29.799-36.618 66.923-39.901 44.952 43.437z" fill="#2a2aae"/></clipPath><clipPath><path d="M761.276 338.169l-3.536 5.808 4.672 9.849 10.102 5.682s19.718 16.57 25.822 31.22c6.715 10.378 30.746-31.725 30.746-31.725s-20.523-45.985-34.815-53.805c-29.089 16.566-14.101 14.547-32.991 32.971z" fill="#2a2aae"/></clipPath><radialGradient r="66.67" fy="303.604" fx="812.751" cy="303.604" cx="812.751" gradientTransform="matrix(-1.925 .702 -.665 -1.823 2576.635 274.248)" gradientUnits="userSpaceOnUse" xlink:href="#b"/><linearGradient id="b"><stop offset="0" stop-color="#fff" stop-opacity=".82"/><stop offset="1" stop-color="#fff" stop-opacity="0"/></linearGradient><filter color-interpolation-filters="sRGB"><feFlood flood-opacity=".4" flood-color="#000" result="flood"/><feComposite in2="SourceGraphic" in="flood" operator="in" result="composite1"/><feGaussianBlur stdDeviation="8" result="blur"/><feOffset result="offset"/><feComposite in2="offset" in="SourceGraphic" result="composite2"/></filter><radialGradient xlink:href="#c" gradientUnits="userSpaceOnUse" gradientTransform="matrix(-1.925 .702 -.665 -1.823 2576.635 274.248)" cx="812.751" cy="303.604" fx="812.751" fy="303.604" r="66.67"/><linearGradient id="c"><stop offset="0" stop-color="#fff" stop-opacity=".82"/><stop offset="1" stop-color="#fff" stop-opacity="0"/></linearGradient><radialGradient r="66.67" fy="303.604" fx="812.751" cy="303.604" cx="812.751" gradientTransform="matrix(-1.925 .702 -.665 -1.823 2576.635 274.248)" gradientUnits="userSpaceOnUse" xlink:href="#c"/><filter color-interpolation-filters="sRGB"><feFlood flood-opacity=".4" flood-color="#000" result="flood"/><feComposite in2="SourceGraphic" in="flood" operator="in" result="composite1"/><feGaussianBlur stdDeviation="8" result="blur"/><feOffset result="offset"/><feComposite in2="offset" in="SourceGraphic" result="composite2"/></filter><radialGradient xlink:href="#d" id="e" gradientUnits="userSpaceOnUse" gradientTransform="matrix(-2.442 .67 -.556 -2.029 2843.701 446.516)" spreadMethod="pad" cx="759.597" cy="332.465" fx="759.597" fy="332.465" r="60.104"/><linearGradient id="d"><stop offset="0" stop-color="#2a2aae" stop-opacity=".436"/><stop offset="1" stop-color="#2a2aae"/></linearGradient></defs><g transform="translate(0 -796.362)"><path d="M256.081 924.396c0 70.696-57.31 128.007-128.007 128.007-70.696 0-128.007-57.31-128.007-128.007 0-70.696 57.31-128.007 128.007-128.007 70.696 0 128.007 57.31 128.007 128.007z" fill="#fff"/><path d="M242.077 924.397c0 62.937-51.02 113.957-113.957 113.957-62.937 0-113.957-51.02-113.957-113.957 0-62.937 51.02-113.957 113.957-113.957 62.937 0 113.957 51.02 113.957 113.957z" fill="url(#e)"/><path d="M103.477 872.082v23.497h-17.215v28.733h17.215v85.383h35.364v-85.381h23.728s2.222-13.777 3.3-28.841h-26.895v-19.646c0-2.935 3.855-6.885 7.667-6.885h19.266v-29.912h-26.195c-37.109-.002-36.234 28.759-36.234 33.052z" fill="#fff"/></g></svg>