<svg xmlns="http://www.w3.org/2000/svg" xmlns:xlink="http://www.w3.org/1999/xlink" width="256" height="256"><defs><filter color-interpolation-filters="sRGB"><feFlood flood-opacity=".4" flood-color="#000" result="flood"/><feComposite in2="SourceGraphic" in="flood" operator="in" result="composite1"/><feGaussianBlur stdDeviation="8" result="blur"/><feOffset result="offset"/><feComposite in2="offset" in="SourceGraphic" result="composite2"/></filter><clipPath id="b"><rect width="103.571" height="82.5" x="288.663" y="658.904" transform="rotate(-38.33)" fill="#2e5dee" stroke="#fff" stroke-width=".1"/></clipPath><clipPath id="c"><path d="M798.273 308.496l-40.911 33.082-19.445.758-14.395-11.617-29.799-36.618 66.923-39.901 44.952 43.437z" fill="#2a2aae"/></clipPath><clipPath id="d"><path d="M761.276 338.169l-3.536 5.808 4.672 9.849 10.102 5.682s19.718 16.57 25.822 31.22c6.715 10.378 30.746-31.725 30.746-31.725s-20.523-45.985-34.815-53.805c-29.089 16.566-14.101 14.547-32.991 32.971z" fill="#2a2aae"/></clipPath><radialGradient xlink:href="#a" gradientUnits="userSpaceOnUse" gradientTransform="matrix(-1.925 .702 -.665 -1.823 2576.635 274.248)" cx="812.751" cy="303.604" fx="812.751" fy="303.604" r="66.67"/><linearGradient id="a"><stop offset="0" stop-color="#fff" stop-opacity=".82"/><stop offset="1" stop-color="#fff" stop-opacity="0"/></linearGradient><radialGradient r="66.67" fy="303.604" fx="812.751" cy="303.604" cx="812.751" gradientTransform="matrix(-1.925 .702 -.665 -1.823 2576.635 274.248)" gradientUnits="userSpaceOnUse" id="e" xlink:href="#a"/></defs><g transform="translate(0 -796.362)"><path d="M255.777 924.221c0 70.549-57.191 127.74-127.74 127.74-70.549 0-127.74-57.191-127.74-127.74 0-70.549 57.191-127.74 127.74-127.74 70.549 0 127.74 57.191 127.74 127.74z" fill="#fff"/><path d="M241.756 924.203c0 62.804-50.913 113.717-113.717 113.717s-113.717-50.913-113.717-113.717 50.913-113.717 113.717-113.717 113.717 50.913 113.717 113.717z" fill="#4cb550"/><path d="M241.756 924.203c0 62.804-50.913 113.717-113.717 113.717s-113.717-50.913-113.717-113.717 50.913-113.717 113.717-113.717 113.717 50.913 113.717 113.717z" clip-path="url(#b)" fill="#ee2b34"/><path d="M241.756 924.203c0 62.804-50.913 113.717-113.717 113.717s-113.717-50.913-113.717-113.717 50.913-113.717 113.717-113.717 113.717 50.913 113.717 113.717z" clip-path="url(#c)" fill="#2e5dee"/><path d="M241.756 924.203c0 62.804-50.913 113.717-113.717 113.717s-113.717-50.913-113.717-113.717 50.913-113.717 113.717-113.717 113.717 50.913 113.717 113.717z" clip-path="url(#d)" fill="#f6ad0f"/><path d="M558.358 412.346h-28.212c-7.394 0-16.706 1.091-24.508 7.518-5.896 5.067-8.764 12.038-8.764 18.334 0 10.67 8.217 21.483 22.733 21.483 1.369 0 2.869-.139 4.387-.272-.686 1.637-1.377 3.005-1.377 5.334 0 4.243 2.193 6.838 4.109 9.302-6.155.408-17.663 1.091-26.158 6.288-8.079 4.798-10.549 11.769-10.549 16.696 0 10.124 9.588 19.569 29.448 19.569 23.556 0 36.022-12.997 36.022-25.866 0-9.431-5.479-14.09-11.505-19.152l-4.932-3.828c-1.5-1.234-3.554-2.872-3.554-5.884 0-3.008 2.054-4.928 3.831-6.706 5.749-4.513 11.505-9.302 11.505-19.425 0-10.401-6.579-15.874-9.726-18.472h8.495l8.756-4.917zm-12.042 83.724c0 8.483-6.988 14.772-20.138 14.772-14.651 0-24.104-6.978-24.104-16.686 0-9.721 8.766-12.994 11.776-14.09 5.756-1.918 13.15-2.19 14.38-2.19 1.371 0 2.056 0 3.156.134 10.411 7.387 14.93 11.084 14.93 18.06zm-10.959-44.052c-2.193 2.185-5.894 3.828-9.319 3.828-11.773 0-17.112-15.189-17.112-24.352 0-3.558.686-7.249 3.009-10.124 2.193-2.736 6.025-4.516 9.588-4.516 11.365 0 17.259 15.324 17.259 25.171 0 2.467-.279 6.841-3.425 9.993z" fill="#fff" stroke="#fff" stroke-width="2.317" transform="matrix(1.633 0 0 1.633 -731.036 168.851)"/><path d="M256.354 924.799c0 70.549-57.191 127.74-127.74 127.74-70.549 0-127.74-57.191-127.74-127.74 0-70.549 57.191-127.74 127.74-127.74 70.549 0 127.74 57.191 127.74 127.74z" fill="url(#e)"/></g></svg>